<svg xmlns="http://www.w3.org/2000/svg" width="103" height="40" fill="none"><path fill="#fff" fill-rule="evenodd" d="M11.46 40c1.621 0 3.137-.335 4.547-1.005 1.41-.67 2.63-1.605 3.66-2.808v3.082h6.981V0h-6.98v18.744c-.925-1.126-2.084-2.005-3.479-2.637-1.395-.631-2.91-.947-4.547-.947-2.26 0-4.264.544-6.015 1.632-1.75 1.088-3.126 2.565-4.126 4.43C.5 23.085 0 25.204 0 27.58c0 2.42.515 4.566 1.546 6.438 1.03 1.872 2.414 3.337 4.15 4.395C7.43 39.471 9.353 40 11.46 40Zm2.091-5.959c-1.197 0-2.266-.278-3.206-.833a5.901 5.901 0 0 1-2.205-2.283c-.53-.967-.796-2.067-.796-3.3 0-1.247.273-2.362.819-3.344a6.134 6.134 0 0 1 2.217-2.317c.932-.564 1.997-.845 3.194-.845 1.213 0 2.29.281 3.229.845a6.046 6.046 0 0 1 2.217 2.305c.538.975.807 2.086.807 3.334 0 1.233-.27 2.336-.807 3.31a5.962 5.962 0 0 1-2.217 2.295c-.94.555-2.024.833-3.252.833Zm26.285-23.573a3.945 3.945 0 0 1-2.07.56 4.005 4.005 0 0 1-2.08-.56 4.258 4.258 0 0 1-1.512-1.518 4.044 4.044 0 0 1-.568-2.1c0-.762.19-1.454.568-2.078a4.319 4.319 0 0 1 1.512-1.496 4.005 4.005 0 0 1 2.08-.56c.759 0 1.448.187 2.07.56a4.256 4.256 0 0 1 1.49 1.496c.37.624.556 1.316.556 2.077 0 .761-.186 1.461-.557 2.1a4.199 4.199 0 0 1-1.49 1.519Zm1.41 28.801V15.89h-6.98v23.38h6.98Zm14.642-13.835v13.835h-6.98V15.89h6.98v2.603c.895-1.004 2.013-1.811 3.354-2.42 1.342-.609 2.823-.913 4.445-.913 1.789 0 3.362.392 4.718 1.176A8.41 8.41 0 0 1 71.6 19.6c.773 1.392 1.16 3.017 1.16 4.874v14.794h-6.981V25.96c0-1.674-.436-2.98-1.307-3.916-.872-.936-2.066-1.404-3.581-1.404-1.031 0-1.922.21-2.672.628a4.36 4.36 0 0 0-1.728 1.713c-.402.722-.603 1.54-.603 2.454ZM91.131 40c2.456 0 4.684-.533 6.685-1.598 2-1.066 3.547-2.542 4.638-4.43l-5.025-2.534c-.864 1.035-1.762 1.789-2.694 2.26-.932.472-2.005.708-3.217.708-1.289 0-2.418-.247-3.388-.742-.97-.494-1.724-1.183-2.263-2.066-.538-.883-.807-1.918-.807-3.105h17.849c.046-.396.072-.666.08-.81.007-.145.011-.316.011-.514 0-2.39-.512-4.483-1.535-6.279a10.907 10.907 0 0 0-4.274-4.212c-1.827-1.012-3.953-1.518-6.378-1.518-1.82 0-3.51.316-5.07.947a12.843 12.843 0 0 0-4.116 2.649 12.226 12.226 0 0 0-2.763 3.96c-.659 1.508-.989 3.129-.989 4.864 0 2.36.584 4.475 1.751 6.347 1.167 1.872 2.748 3.352 4.74 4.44C86.36 39.457 88.616 40 91.132 40Zm-5.82-15.388h10.822c-.151-.898-.473-1.674-.966-2.329a4.857 4.857 0 0 0-1.876-1.507c-.758-.35-1.614-.525-2.57-.525-1.015 0-1.91.175-2.682.525a4.561 4.561 0 0 0-1.865 1.507c-.47.655-.758 1.43-.864 2.329Z" clip-rule="evenodd"/></svg>